<?xml version="1.0" encoding="utf-8"?>
<!-- Generator: Adobe Illustrator 19.0.0, SVG Export Plug-In . SVG Version: 6.00 Build 0)  -->
<svg version="1.1" id="Layer_1" xmlns="http://www.w3.org/2000/svg" xmlns:xlink="http://www.w3.org/1999/xlink" x="0px" y="0px"
	 viewBox="0 0 512 512" style="enable-background:new 0 0 512 512;" xml:space="preserve">
<style type="text/css">
	.st0{fill:#010101;}
</style>
<g id="XMLID_2_" transform="translate(0,-952.36218)">
	<path id="XMLID_3_" class="st0" d="M46.5,987.3c-25.7,0-46.5,20.8-46.5,46.5v69.8v69.8v23.3v23.3v23.3v69.8v69.8
		c0,25.7,20.8,46.5,46.5,46.5H256h209.5c25.7,0,46.5-20.8,46.5-46.5v-69.8V1220v-46.5v-69.8v-69.8c0-25.7-20.8-46.5-46.5-46.5H256
		C256,987.3,46.5,987.3,46.5,987.3z M69.8,1060l116.4,66.9l-116.4,66.9v-26.2l69.8-40.7l-69.8-40.7L69.8,1060L69.8,1060z
		 M186.2,1173.5h116.4v23.3H186.2V1173.5z"/>
</g>
</svg>
