<?xml version="1.0" encoding="utf-8"?>
<!-- Generator: Adobe Illustrator 19.0.0, SVG Export Plug-In . SVG Version: 6.00 Build 0)  -->
<svg version="1.1" id="Layer_1" xmlns="http://www.w3.org/2000/svg" xmlns:xlink="http://www.w3.org/1999/xlink" x="0px" y="0px"
	 viewBox="0 0 512 512" style="enable-background:new 0 0 512 512;" xml:space="preserve">
<path id="XMLID_2_" d="M483.7,0H28.3C12.6,0,0,12.6,0,28.3v455.5C0,499.3,12.6,512,28.3,512h245.2V313.7h-66.7v-77.3h66.7v-57
	c0-66.1,40.4-102.1,99.4-102.1c28.3,0,52.5,2.1,59.6,3v69.1l-40.9,0c-32.1,0-38.3,15.2-38.3,37.6v49.3h76.5l-10,77.3h-66.6V512
	h130.5c15.6,0,28.3-12.7,28.3-28.3V28.3C512,12.6,499.3,0,483.7,0z"/>
</svg>
