<?xml version="1.0" encoding="utf-8"?>
<!-- Generator: Adobe Illustrator 19.0.0, SVG Export Plug-In . SVG Version: 6.00 Build 0)  -->
<svg version="1.1" id="Layer_1" xmlns="http://www.w3.org/2000/svg" xmlns:xlink="http://www.w3.org/1999/xlink" x="0px" y="0px"
	 viewBox="0 0 512 512" style="enable-background:new 0 0 512 512;" xml:space="preserve">
<path d="M413.1,0H98.9C44.3,0,0,44.3,0,98.9v104v209.1C0,466.7,44.3,511,98.9,511h314.2c54.6,0,98.9-44.3,98.9-98.9V202.9v-104
	C512,45.3,466.7,0,413.1,0z M440.9,59.8h11.3v11.3v75.2h-86.5V59.8L440.9,59.8z M182.3,204c16.5-22.7,43.3-37.1,73.1-37.1
	c29.9,0,56.7,14.4,73.1,37.1c10.3,14.4,17.5,33,17.5,52.5c0,49.4-40.2,89.6-89.6,89.6s-89.6-40.2-89.6-89.6
	C165.9,236.9,172,218.4,182.3,204z M461.5,413.1c0,26.8-21.6,49.4-49.4,49.4H97.9c-26.8,0-49.4-21.6-49.4-49.4V204h76.2
	c-6.2,16.5-10.3,34-10.3,52.5c0,77.3,62.8,140.1,140.1,140.1s140.1-62.8,140.1-140.1c0-18.5-4.1-36.1-10.3-52.5h76.2v209.1H461.5z"
	/>
</svg>
