<?xml version="1.0" encoding="utf-8"?>
<!-- Generator: Adobe Illustrator 19.0.0, SVG Export Plug-In . SVG Version: 6.00 Build 0)  -->
<svg version="1.1" id="Layer_1" xmlns="http://www.w3.org/2000/svg" xmlns:xlink="http://www.w3.org/1999/xlink" x="0px" y="0px"
	 viewBox="0 0 512 512" style="enable-background:new 0 0 512 512;" xml:space="preserve">
<style type="text/css">
	.st0{fill:#010101;}
</style>
<g id="XMLID_2_">
	<path id="XMLID_4_" class="st0" d="M387,116.8c2.2-2.2,2.2-6.5,0-9.8l-42.3-42.3c-2.2-2.2-6.5-2.2-9.8,0l-16.3,16.3
		c-1.1,1.1-4.3,1.1-5.4,0l-7.6-7.6c-1.1-1.1-1.1-3.3-1.1-4.3c6.5-13,8.7-26,5.4-34.7c-1.1-2.2-1.1-3.3-3.3-5.4L281.8,4.1
		c-5.4-5.4-13-5.4-18.4,0L176.6,93c-5.4,5.4-5.4,13,0,18.4l24.9,24.9c1.1,1.1,3.3,2.2,5.4,3.3c7.6,3.3,19.5,1.1,31.4-4.3
		c1.1-1.1,3.3,0,4.3,1.1l7.6,7.6c1.1,1.1,1.1,4.3,0,5.4l-15.2,15.2c-2.2,2.2-2.2,6.5,0,9.8l7.6,7.6l-232,221.2
		c-10.8,10.8-13,28.2-2.2,39c10.8,11.9,29.3,11.9,40.1,0l222.3-234.2l7.6,7.6c2.2,2.2,6.5,2.2,9.8,0l15.2-15.2
		c1.1-1.1,4.3-1.1,5.4,0l7.6,7.6c1.1,1.1,1.1,3.3,1.1,4.3c-5.4,13-7.6,23.9-4.3,31.4c1.1,2.2,1.1,3.3,3.3,5.4l24.9,24.9
		c5.4,5.4,13,5.4,18.4,0l87.8-87.8c5.4-5.4,5.4-13,0-18.4l-24.9-24.9c-1.1-1.1-3.3-2.2-5.4-3.3c-8.7-3.3-20.6-1.1-34.7,5.4
		c-1.1,1.1-3.3,0-4.3-1.1l-7.6-7.6c-1.1-1.1-1.1-4.3,0-5.4L387,116.8z"/>
	<path id="XMLID_3_" class="st0" d="M510.6,449.7c0-9.8-13-19.5-34.7-26c-2.2-1.1-4.3-3.3-4.3-5.4v-6.5c0-3.3-2.2-5.4-5.4-5.4H327.3
		c-3.3,0-5.4,2.2-5.4,5.4v6.5c0,2.2-2.2,4.3-4.3,5.4c-20.6,6.5-34.7,16.3-34.7,26l0,0v47.7c0,7.6,6.5,14.1,14.1,14.1h199.5
		c7.6,0,14.1-6.5,14.1-14.1L510.6,449.7L510.6,449.7z"/>
</g>
</svg>
