<?xml version="1.0" encoding="utf-8"?>
<!-- Generator: Adobe Illustrator 19.0.0, SVG Export Plug-In . SVG Version: 6.00 Build 0)  -->
<svg version="1.1" id="Layer_1" xmlns="http://www.w3.org/2000/svg" xmlns:xlink="http://www.w3.org/1999/xlink" x="0px" y="0px"
	 viewBox="0 0 512 512" style="enable-background:new 0 0 512 512;" xml:space="preserve">
<g>
	<path d="M327.9,222.9c-13.1,0-26.1,0-39,0c-0.8-2.1-1.5-4.3-2.4-6.4c-5.8-14.3-16.7-22.1-31.9-23.1c-13.8-0.9-27.7-0.8-41.5-1.1
		c-0.3,0-0.5,0.1-1,0.1c0,10.1,0,20.2,0,30.4c-12.7,0-25.1,0-37.7,0c0-20.7,0-41.3,0-62.1c0.5,0,1.1-0.1,1.6-0.1
		c25.7,0,51.4,0,77.1,0.2c11.1,0.1,22.2,1.3,32.6,5.7c16.4,7,27.7,19.2,35.1,35.1c2.9,6.1,4.6,12.8,6.8,19.2
		C327.7,221.4,327.7,222,327.9,222.9z"/>
	<path d="M174.3,347.7c0-19.8,0-39.4,0-59c12.5,0,24.9,0,37.6,0c0,9.1,0,18.2,0,27.4c0.5,0.1,0.8,0.2,1,0.2
		c13.3-0.1,26.6-0.1,40-0.5c4.3-0.1,8.7-1,12.8-2.2c11.2-3.1,17.9-11,21.4-21.8c1.1-3.3,1.1-3.3,4.6-3.3c11,0,22.1,0,33.1,0
		c0.7,0,1.5,0,2.6,0c-0.5,1.7-0.8,3.2-1.3,4.7c-4.1,13.1-10.3,25-20,34.8c-9.5,9.5-21.4,14.7-34.4,17.5c-8.5,1.8-17.1,2.2-25.8,2.2
		c-23.2,0-46.5,0-69.7,0C175.7,347.7,175.1,347.7,174.3,347.7z"/>
	<path d="M364,288.6c0.7,0,1.2-0.1,1.8-0.1c11.2,0,22.5,0,33.7,0c1.2,0,1.9,0,2.1,1.6c1.5,13.7,10.2,23.6,23.6,26.9
		c8.9,2.2,17.9,2.2,26.8,0c12.4-3.1,20-12.3,21-25c0.1-1.1,0.3-2.2,0.4-3.4c12.6,0,25,0,37.9,0c-0.6,5.2-1,10.3-1.9,15.4
		c-4.2,23.7-19,38-41.7,43.7c-20.6,5.2-41.6,5-62-0.7c-19.4-5.4-33.1-17.9-38.8-37.7c-1.8-6.3-2.1-13-3.1-19.6
		C363.9,289.4,363.9,289.1,364,288.6z"/>
	<path d="M37.7,192.2c0,10.4,0,20.4,0,30.6c-12.6,0-25.1,0-37.7,0c0-20.6,0-41.3,0-62.1c46.1,0,92.2,0,138.5,0c0,10.4,0,20.8,0,31.4
		C105,192.2,71.5,192.2,37.7,192.2z"/>
	<path d="M0,347.6c0-19.7,0-39.3,0-58.9c12.5,0,24.9,0,37.6,0c0,9.1,0,18.1,0,27.5c35,0,69.7,0,104.6,0c0,10.6,0,21,0,31.4
		C94.7,347.6,47.4,347.6,0,347.6z"/>
	<path d="M363,222.8c0-20.7,0-41.3,0-62.1c12.5,0,24.9,0,37.5,0c0,20.7,0,41.3,0,62.1C388,222.8,375.6,222.8,363,222.8z"/>
	<path d="M512,222.8c-12.5,0-24.9,0-37.5,0c0-20.7,0-41.3,0-62.1c12.5,0,24.9,0,37.5,0C512,181.4,512,202.1,512,222.8z"/>
	<path d="M355,263.7c0-11.4,0-22.9,0-34.4c3.3,0,6.5,0,9.8,0c0,17.6,0,35.1,0,52.9c-3.4,0-6.8,0.1-10.1-0.1c-0.5,0-1.1-0.9-1.4-1.5
		c-6.3-10.1-12.5-20.2-18.8-30.4c-0.4-0.6-0.8-1.2-1.6-1.7c0,11.1,0,22.2,0,33.5c-3.4,0-6.6,0-9.9,0c0-17.6,0-35.1,0-52.9
		c3.3,0,6.5-0.1,9.8,0.1c0.5,0,1.1,0.9,1.4,1.5c6.5,10.5,12.9,21,19.3,31.5c0.3,0.6,0.7,1.1,1.1,1.6
		C354.7,263.8,354.8,263.8,355,263.7z"/>
	<path d="M423.3,243.9c-3.6,0.7-7,1.3-10.6,2c-1-2.7-2.5-5.1-5-6.6c-6.8-4.2-17.3-1.3-20.4,6.1c-2.9,7-2.8,14.2,0.4,21
		c2.9,6.2,10,8.9,17.3,7c0.9-0.2,1.8-0.5,2.7-0.9c6.7-3.2,5.5-2,5.3-9.6c-3.9,0-7.8,0-11.9,0c0-3,0-5.9,0-8.9c7.6,0,15.1,0,22.8,0
		c0.1,0.6,0.2,1.1,0.2,1.6c0,6,0.1,11.9,0,17.9c0,0.9-0.5,2-1.2,2.5c-10.7,7.5-22.2,9.7-34.5,4.5c-6.3-2.7-10.1-7.8-12.2-14.2
		c-2.2-6.7-2.4-13.4-0.4-20.2c3.1-10.8,11.6-17.4,23.3-17.7c4-0.1,8.2,0.4,12,1.5C417.7,231.9,421.6,236.9,423.3,243.9z"/>
	<path d="M268.3,257.7c-2.8,2.7-5.7,5.4-8.4,8.1c-0.4,0.4-0.4,1.2-0.4,1.8c0,4.1,0,8.3,0,12.4c0,0.7,0,1.3,0,2c-3.7,0-7.1,0-10.7,0
		c0-17.6,0-35.1,0-52.8c3.5,0,6.9,0,10.6,0c0,7.6,0,15.2,0,22.7c0.2,0.1,0.3,0.2,0.5,0.3c0.4-0.5,0.9-1.1,1.3-1.6
		c6.2-6.8,12.4-13.5,18.7-20.2c0.7-0.8,2-1.3,3.1-1.3c4-0.2,8-0.1,12.6-0.1c-6.9,7.1-13.3,13.8-20,20.7c6.9,10.7,13.9,21.4,21,32.4
		c-4.7,0-9,0-13.3-0.1c-0.5,0-1.1-0.9-1.4-1.5c-4.2-7.1-8.4-14.3-12.6-21.4C268.9,258.7,268.5,258.2,268.3,257.7z"/>
	<path d="M88.1,282.1c0-17.7,0-35.1,0-52.8c3.5,0,6.9,0,10.6,0c0,6.8,0,13.6,0,20.6c7.1,0,13.9,0,20.9,0c0-6.8,0-13.6,0-20.6
		c3.7,0,7.1,0,10.7,0c0,17.5,0,35.1,0,52.8c-3.4,0-6.9,0-10.6,0c0-7.7,0-15.3,0-22.9c-7.1,0-13.9,0-20.9,0c0,7.6,0,15.2,0,22.9
		C95.2,282.1,91.8,282.1,88.1,282.1z"/>
	<path d="M189.2,282.3c-3.7,0-7.1,0.1-10.5-0.1c-0.5,0-1.3-0.8-1.5-1.4c-1.3-3-2.4-6.1-3.5-9.2c-0.4-1.1-0.9-1.4-2-1.4
		c-6.1,0-12.2,0.1-18.3,0c-1.1,0-1.6,0.4-2,1.5c-1,3-2.2,6-3.2,9.1c-0.4,1.1-0.8,1.6-2.1,1.6c-3.1-0.1-6.3,0-9.7,0
		c0.3-0.9,0.4-1.5,0.7-2c6.4-16.4,12.8-32.9,19.2-49.3c0.5-1.3,1.1-1.9,2.6-1.8c2.7,0.1,5.4,0,8,0.1c0.7,0,1.6,0.6,1.9,1.2
		c6.8,16.9,13.6,33.8,20.4,50.8C189.1,281.5,189.1,281.7,189.2,282.3z M155.3,261.1c4.8,0,9.5,0,14.3,0c-2.4-6.5-4.7-12.7-7.2-19.4
		C159.9,248.4,157.6,254.6,155.3,261.1z"/>
	<path d="M239.2,243.9c-3.5,0.8-6.9,1.7-10.4,2.5c-0.2-0.4-0.3-0.8-0.4-1.1c-1.8-4.9-5.4-7.7-10.3-7.8c-5.5-0.2-10,2.5-12,7.4
		c-2.2,5.2-2,10.6-1.4,16c0.2,1.8,0.6,3.6,1.2,5.2c1.8,4.9,6,7.8,11.2,7.9c4.9,0.1,8.7-2.6,10.7-7.6c0.5-1.2,0.8-2.4,1.3-3.7
		c3.4,1.1,6.8,2.2,10.1,3.2c-1.7,10.1-9.7,16.7-20.6,17.2c-13.1,0.6-23.4-8.2-25.1-21.2c-0.6-5.2-0.5-10.3,0.7-15.3
		c3.1-12.4,13.8-19.7,26.5-18.1C230.7,229.7,236.9,234.8,239.2,243.9z"/>
	<path d="M312.3,282.2c-3.5,0-6.9,0-10.4,0c0-17.6,0-35.1,0-52.8c3.4,0,6.9,0,10.4,0C312.3,246.9,312.3,264.5,312.3,282.2z"/>
</g>
</svg>
