<?xml version="1.0" encoding="utf-8"?>
<!-- Generator: Adobe Illustrator 19.0.0, SVG Export Plug-In . SVG Version: 6.00 Build 0)  -->
<svg version="1.1" id="Layer_1" xmlns="http://www.w3.org/2000/svg" xmlns:xlink="http://www.w3.org/1999/xlink" x="0px" y="0px"
	 viewBox="0 0 512 512" style="enable-background:new 0 0 512 512;" xml:space="preserve">
<g>
	<path d="M24.2,84c4-1.5,8.3-2.4,12.9-2.4h437.8c4.5,0,8.9,0.9,12.9,2.4L291.6,268.8c-20,18.8-51.3,18.8-71.2,0L24.2,84z
		 M506.5,412.4c3.4-5.6,5.5-12.1,5.5-19.1V118.7c0-5-1-9.7-2.8-14.1L325.6,277.6L506.5,412.4z M309,293
		c-15.2,13.1-34.1,19.7-53,19.7c-18.9,0-37.8-6.6-53-19.7L22.6,427.4c4.5,1.9,9.4,3,14.5,3h437.8c5.2,0,10.1-1.1,14.5-3L309,293z
		 M2.8,104.6C1,109,0,113.7,0,118.7v274.6c0,7,2.1,13.5,5.5,19.1l180.9-134.8L2.8,104.6z"/>
</g>
</svg>
