<?xml version="1.0" encoding="utf-8"?>
<!-- Generator: Adobe Illustrator 19.0.0, SVG Export Plug-In . SVG Version: 6.00 Build 0)  -->
<svg version="1.1" id="Layer_1" xmlns="http://www.w3.org/2000/svg" xmlns:xlink="http://www.w3.org/1999/xlink" x="0px" y="0px"
	 viewBox="0 0 512 512" style="enable-background:new 0 0 512 512;" xml:space="preserve">
<g id="g10" transform="matrix(1.3333333,0,0,-1.3333333,0,126.66667)">
	<g id="g12" transform="scale(0.1)">
		<path id="path14" d="M3840,102h-151.9c-56.4,0-136.1-81.3-136.1-133.4v-1887.4c0-52.1,79.7-123.2,136.1-123.2H3840v-448H2464v448
			h288V-58h-14.1l-672.5-2432h-520.7L880.8-58H864v-1984h288v-448H0v448h147.5c60.7,0,140.5,71.1,140.5,123.2V-31.4
			C288,20.7,208.3,102,147.5,102H0v448h1440.5l473-1760h13l477.3,1760H3840V102"/>
	</g>
</g>
</svg>
