<?xml version="1.0" encoding="utf-8"?>
<!-- Generator: Adobe Illustrator 19.0.0, SVG Export Plug-In . SVG Version: 6.00 Build 0)  -->
<svg version="1.1" id="Layer_1" xmlns="http://www.w3.org/2000/svg" xmlns:xlink="http://www.w3.org/1999/xlink" x="0px" y="0px"
	 viewBox="0 0 512 512" style="enable-background:new 0 0 512 512;" xml:space="preserve">
<style type="text/css">
	.st0{fill:#010101;}
</style>
<path id="XMLID_2_" class="st0" d="M256,0C160.2,0,82.6,77.6,82.6,173.4c0,2.1,0.1,4.1,0.2,6.3c0.7,18.2,4.1,35.7,9.9,52.1
	C129.7,353.4,256,512,256,512s126.3-158.6,163.3-280.2c5.9-16.4,9.3-33.9,9.9-52.1c0.1-2.1,0.2-4.2,0.2-6.3
	C429.4,77.6,351.8,0,256,0z M256,258.4c-46.9,0-84.9-38-84.9-84.9c0-46.9,38-84.9,84.9-84.9c46.9,0,84.9,38,84.9,84.9
	C340.9,220.3,302.9,258.4,256,258.4z"/>
</svg>
