<?xml version="1.0" encoding="utf-8"?>
<!-- Generator: Adobe Illustrator 19.0.0, SVG Export Plug-In . SVG Version: 6.00 Build 0)  -->
<svg version="1.1" id="Layer_1" xmlns="http://www.w3.org/2000/svg" xmlns:xlink="http://www.w3.org/1999/xlink" x="0px" y="0px"
	 viewBox="0 0 512 512" style="enable-background:new 0 0 512 512;" xml:space="preserve">
<style type="text/css">
	.st0{fill:#010101;}
</style>
<path id="XMLID_2_" class="st0" d="M370.5,33.9L60,152.1L167.6,435l-24.8,9.4L35.2,161.5l-12.4,4.7c-18.3,6.9-27.4,27.4-20.5,45.6
	l93.5,245.8c6.9,18.3,27.4,27.4,45.6,20.5l347.7-132.3c18.3-6.9,27.4-27.4,20.5-45.6L416.1,54.4C409.2,36.1,388.8,26.9,370.5,33.9z
	 M119.9,155.3l45.4-17.3l17.3,45.4l-45.4,17.3L119.9,155.3z M334.6,371.5l-115.7,44l-5.2-13.7l115.7-44L334.6,371.5z M322.7,340
	l-115.7,44l-5.2-13.7l115.7-44L322.7,340z M310.7,308.6l-115.7,44l-5.2-13.7l115.7-44L310.7,308.6z M298.7,277.2l-115.7,44
	l-5.2-13.7l115.7-44L298.7,277.2z M286.8,245.8l-115.7,44l-5.2-13.7l115.7-44L286.8,245.8z M272,206.9l-115.7,44l-5.2-13.7l115.7-44
	L272,206.9z M254.5,156.1L209,173.4l-17.3-45.4l45.4-17.3L254.5,156.1z M263.5,100.6L309,83.3l17.3,45.4L280.8,146L263.5,100.6z
	 M479.8,316.2l-98.7,37.6l-53-139.4l98.7-37.6L479.8,316.2z M417.2,151.7l-98.7,37.6l-5.2-13.7L412,138L417.2,151.7z M398.1,101.4
	l-45.4,17.3l-17.3-45.4L380.8,56L398.1,101.4z"/>
</svg>
