<?xml version="1.0" encoding="utf-8"?>
<!-- Generator: Adobe Illustrator 19.0.0, SVG Export Plug-In . SVG Version: 6.00 Build 0)  -->
<svg version="1.1" id="Layer_1" xmlns="http://www.w3.org/2000/svg" xmlns:xlink="http://www.w3.org/1999/xlink" x="0px" y="0px"
	 viewBox="0 0 512 512" style="enable-background:new 0 0 512 512;" xml:space="preserve">
<style type="text/css">
	.st0{fill:#010101;}
</style>
<g id="XMLID_2_">
	<rect id="XMLID_12_" x="96" class="st0" width="64" height="64"/>
	<rect id="XMLID_11_" x="352" class="st0" width="64" height="64"/>
	<path id="XMLID_3_" class="st0" d="M480,32h-32v32c0,17.7-14.3,32-32,32h-64c-17.7,0-32-14.3-32-32V32H192v32c0,17.7-14.3,32-32,32
		H96c-17.7,0-32-14.3-32-32V32H32C14.3,32,0,46.3,0,64v416c0,17.7,14.3,32,32,32h448c17.7,0,32-14.3,32-32V64
		C512,46.3,497.7,32,480,32z M160,416H96v-64h64V416z M160,288H96v-64h64V288z M288,416h-64v-64h64V416z M288,288h-64v-64h64V288z
		 M416,416h-64v-64h64V416z M416,288h-64v-64h64V288z"/>
</g>
</svg>
