<?xml version="1.0" encoding="utf-8"?>
<!-- Generator: Adobe Illustrator 19.0.0, SVG Export Plug-In . SVG Version: 6.00 Build 0)  -->
<svg version="1.1" id="Layer_1" xmlns="http://www.w3.org/2000/svg" xmlns:xlink="http://www.w3.org/1999/xlink" x="0px" y="0px"
	 viewBox="0 0 512 512" style="enable-background:new 0 0 512 512;" xml:space="preserve">
<g id="XMLID_2_">
	
		<rect id="XMLID_8_" x="221.3" y="219.9" transform="matrix(-0.3176 -0.9482 0.9482 -0.3176 94.5593 580.0508)" width="69.4" height="72.1"/>
	<g id="XMLID_3_">
		
			<rect id="XMLID_7_" x="221.3" y="219.9" transform="matrix(-0.3176 -0.9482 0.9482 -0.3176 94.5597 580.0509)" width="69.4" height="72.1"/>
		<path id="XMLID_4_" d="M490.6,185.6c-52.8-175.9-129-217-304.9-164.2C9.7,74.2-31.4,150.4,21.4,326.4
			c52.8,175.9,129,217,304.9,164.2C502.3,437.8,543.4,361.6,490.6,185.6z M401.6,299.8l-33.2,11.1l11.5,34.3
			c4.7,13.9-2.8,28.9-16.7,33.6c-3,1-6.1,1.4-9.1,1.4c-10.8-0.3-20.8-7.2-24.5-18.1l-11.5-34.3l-68.4,22.9l11.5,34.3
			c4.7,13.9-2.8,28.9-16.7,33.6c-3,1-6.1,1.4-9.1,1.4c-10.8-0.3-20.8-7.2-24.5-18.1l-11.5-34.3l-33.2,11.1c-3,1-6.1,1.4-9.1,1.4
			c-10.8-0.3-20.8-7.2-24.5-18.1c-4.7-13.9,2.8-28.9,16.7-33.6l33.2-11.1l-22.1-65.8l-33.2,11.1c-3,1-6.1,1.4-9.1,1.4
			c-10.8-0.3-20.8-7.2-24.5-18.1c-4.7-13.9,2.8-28.9,16.7-33.6l33.2-11.1l-11.5-34.3c-4.7-13.9,2.8-28.9,16.7-33.6
			c13.9-4.7,28.9,2.8,33.6,16.7l11.5,34.3l68.4-22.9L250.8,127c-4.7-13.9,2.8-28.9,16.7-33.6c13.9-4.7,28.9,2.8,33.6,16.7l11.5,34.3
			l33.2-11.1c13.9-4.7,28.9,2.8,33.6,16.7c4.7,13.9-2.8,28.9-16.7,33.6l-33.2,11.1l22.1,65.8l33.2-11.1c13.9-4.6,28.9,2.8,33.6,16.7
			C423,280.1,415.5,295.2,401.6,299.8z"/>
	</g>
</g>
</svg>
