<?xml version="1.0" encoding="utf-8"?>
<!-- Generator: Adobe Illustrator 19.0.0, SVG Export Plug-In . SVG Version: 6.00 Build 0)  -->
<svg version="1.1" id="Layer_1" xmlns="http://www.w3.org/2000/svg" xmlns:xlink="http://www.w3.org/1999/xlink" x="0px" y="0px"
	 viewBox="0 0 512 512" style="enable-background:new 0 0 512 512;" xml:space="preserve">
<style type="text/css">
	.st0{fill:#010101;}
</style>
<g id="XMLID_2_">
	<circle id="XMLID_5_" class="st0" cx="149.1" cy="90.7" r="90.7"/>
	<path id="XMLID_4_" class="st0" d="M197.3,214.5l146.2,124.4c5.9,5.9,15.1,6.4,20.4,1l25.5-25.5c5.4-5.4,4.9-14.5-1-20.4
		L264.1,147.7c-5.9-5.9-15-6.4-20.4-1l-47.4,47.4C190.9,199.4,191.4,208.6,197.3,214.5z"/>
	<path id="XMLID_3_" class="st0" d="M403.8,340.9l-13.3,18.8c20.1,14.3,76.7,62.3,72.8,94.7c-1.4,11.8-11.9,21.6-31,29.1
		c-45.9,18-86.9-13.1-126.5-43.1c-23.7-18-46.2-35-69.5-41.7c-16.4-4.7-161.8-41.5-210.7,96.5l21.7,7.7
		c41-115.7,159.4-88.7,182.7-82c19.2,5.4,39.9,21.2,61.9,37.9C325.3,484,362.1,512,404.4,512c11.7,0,23.8-2.1,36.3-7.1
		c27.6-10.8,42.9-26.9,45.4-47.9C492.4,405.2,412.9,347.3,403.8,340.9z"/>
</g>
</svg>
