<?xml version="1.0" encoding="utf-8"?>
<!-- Generator: Adobe Illustrator 19.0.0, SVG Export Plug-In . SVG Version: 6.00 Build 0)  -->
<svg version="1.1" id="Layer_1" xmlns="http://www.w3.org/2000/svg" xmlns:xlink="http://www.w3.org/1999/xlink" x="0px" y="0px"
	 viewBox="0 0 512 512" style="enable-background:new 0 0 512 512;" xml:space="preserve">
<path id="XMLID_2_" d="M507.4,98.6c-18.7,8.3-38.7,13.9-59.8,16.4c21.5-12.9,38-33.3,45.8-57.6C473.3,69.4,451,78,427.3,82.7
	c-19-20.2-46-32.9-76-32.9c-57.5,0-104.1,46.6-104.1,104.1c0,8.2,0.9,16.1,2.7,23.7c-86.5-4.3-163.2-45.8-214.6-108.8
	c-9,15.4-14.1,33.3-14.1,52.3c0,36.1,18.4,68,46.3,86.6c-17.1-0.5-33.1-5.2-47.2-13c0,0.4,0,0.9,0,1.3c0,50.4,35.9,92.5,83.5,102.1
	c-8.7,2.4-17.9,3.7-27.4,3.7c-6.7,0-13.2-0.7-19.6-1.9c13.2,41.4,51.7,71.5,97.2,72.3c-35.6,27.9-80.5,44.6-129.3,44.6
	c-8.4,0-16.7-0.5-24.8-1.5c46.1,29.5,100.8,46.8,159.6,46.8c191.5,0,296.2-158.6,296.2-296.2c0-4.5-0.1-9-0.3-13.5
	C475.8,137.8,493.4,119.5,507.4,98.6z"/>
</svg>
