<?xml version="1.0" encoding="utf-8"?>
<!-- Generator: Adobe Illustrator 19.0.0, SVG Export Plug-In . SVG Version: 6.00 Build 0)  -->
<svg version="1.1" id="Layer_1" xmlns="http://www.w3.org/2000/svg" xmlns:xlink="http://www.w3.org/1999/xlink" x="0px" y="0px"
	 viewBox="0 0 512 512" style="enable-background:new 0 0 512 512;" xml:space="preserve">
<style type="text/css">
	.st0{fill:#010101;}
</style>
<g id="XMLID_2_">
	<path id="XMLID_6_" class="st0" d="M435.5,246.9c-45.1-47.1-108.9-76.4-179.5-76.4s-134.3,29.3-179.5,76.4l37.4,37.2
		C149.5,246.5,200,223,256,223s106.5,23.5,142.1,61.1L435.5,246.9z"/>
	<path id="XMLID_5_" class="st0" d="M325,356.6l37.4-37.2C336,290.9,298.1,273,256,273c-42.1,0-80,17.9-106.5,46.4l37.4,37.2
		c16.8-19.1,41.5-31.1,69-31.1S308.2,337.5,325,356.6z"/>
	<path id="XMLID_4_" class="st0" d="M38.3,208.9c55-56.8,132.2-92.1,217.7-92.1s162.8,35.3,217.7,92.1l38.3-38
		C447.3,104.4,356.5,63,256,63S64.7,104.4,0,170.9L38.3,208.9z"/>
	<ellipse id="XMLID_3_" class="st0" cx="256" cy="416.8" rx="39" ry="38.8"/>
</g>
</svg>
